<mxfile host="app.diagrams.net" modified="2023-11-11T17:29:49.562Z" agent="Mozilla/5.0 (X11; Linux x86_64) AppleWebKit/537.36 (KHTML, like Gecko) Chrome/119.0.0.0 Safari/537.36" etag="efiRc6LZdmE5eqbPRVU7" version="22.1.0" type="device">
  <diagram name="PÃ¡gina-1" id="UpwP1svJZAuKm141tqky">
    <mxGraphModel dx="819" dy="455" grid="1" gridSize="10" guides="1" tooltips="1" connect="1" arrows="1" fold="1" page="1" pageScale="1" pageWidth="827" pageHeight="1169" math="0" shadow="0">
      <root>
        <mxCell id="0" />
        <mxCell id="1" parent="0" />
        <mxCell id="jncbyCJrYNtr5EF5o6Nh-4" value="" style="shape=umlLifeline;perimeter=lifelinePerimeter;whiteSpace=wrap;html=1;container=1;dropTarget=0;collapsible=0;recursiveResize=0;outlineConnect=0;portConstraint=eastwest;newEdgeStyle={&quot;curved&quot;:0,&quot;rounded&quot;:0};participant=umlActor;" vertex="1" parent="1">
          <mxGeometry x="80" y="170" width="20" height="390" as="geometry" />
        </mxCell>
        <mxCell id="jncbyCJrYNtr5EF5o6Nh-5" value="Admin" style="text;html=1;align=center;verticalAlign=middle;resizable=0;points=[];autosize=1;strokeColor=none;fillColor=none;" vertex="1" parent="1">
          <mxGeometry x="60" y="140" width="60" height="30" as="geometry" />
        </mxCell>
        <mxCell id="jncbyCJrYNtr5EF5o6Nh-6" value="Cardapio" style="shape=umlLifeline;perimeter=lifelinePerimeter;whiteSpace=wrap;html=1;container=1;dropTarget=0;collapsible=0;recursiveResize=0;outlineConnect=0;portConstraint=eastwest;newEdgeStyle={&quot;curved&quot;:0,&quot;rounded&quot;:0};" vertex="1" parent="1">
          <mxGeometry x="200" y="140" width="100" height="420" as="geometry" />
        </mxCell>
        <mxCell id="jncbyCJrYNtr5EF5o6Nh-52" value="" style="html=1;points=[[0,0,0,0,5],[0,1,0,0,-5],[1,0,0,0,5],[1,1,0,0,-5]];perimeter=orthogonalPerimeter;outlineConnect=0;targetShapes=umlLifeline;portConstraint=eastwest;newEdgeStyle={&quot;curved&quot;:0,&quot;rounded&quot;:0};" vertex="1" parent="jncbyCJrYNtr5EF5o6Nh-6">
          <mxGeometry x="45" y="90" width="10" height="220" as="geometry" />
        </mxCell>
        <mxCell id="jncbyCJrYNtr5EF5o6Nh-53" value="atualizarCardapio()" style="html=1;verticalAlign=bottom;endArrow=block;curved=0;rounded=0;entryX=0;entryY=0;entryDx=0;entryDy=5;" edge="1" target="jncbyCJrYNtr5EF5o6Nh-52" parent="1" source="jncbyCJrYNtr5EF5o6Nh-4">
          <mxGeometry relative="1" as="geometry">
            <mxPoint x="180" y="235" as="sourcePoint" />
          </mxGeometry>
        </mxCell>
        <mxCell id="jncbyCJrYNtr5EF5o6Nh-54" value="cardapio atualizado" style="html=1;verticalAlign=bottom;endArrow=open;dashed=1;endSize=8;curved=0;rounded=0;exitX=0;exitY=1;exitDx=0;exitDy=-5;" edge="1" source="jncbyCJrYNtr5EF5o6Nh-52" parent="1" target="jncbyCJrYNtr5EF5o6Nh-4">
          <mxGeometry relative="1" as="geometry">
            <mxPoint x="180" y="305" as="targetPoint" />
          </mxGeometry>
        </mxCell>
        <mxCell id="jncbyCJrYNtr5EF5o6Nh-55" value="Prato" style="shape=umlLifeline;perimeter=lifelinePerimeter;whiteSpace=wrap;html=1;container=1;dropTarget=0;collapsible=0;recursiveResize=0;outlineConnect=0;portConstraint=eastwest;newEdgeStyle={&quot;curved&quot;:0,&quot;rounded&quot;:0};" vertex="1" parent="1">
          <mxGeometry x="390" y="140" width="100" height="430" as="geometry" />
        </mxCell>
        <mxCell id="jncbyCJrYNtr5EF5o6Nh-64" value="" style="html=1;points=[[0,0,0,0,5],[0,1,0,0,-5],[1,0,0,0,5],[1,1,0,0,-5]];perimeter=orthogonalPerimeter;outlineConnect=0;targetShapes=umlLifeline;portConstraint=eastwest;newEdgeStyle={&quot;curved&quot;:0,&quot;rounded&quot;:0};" vertex="1" parent="jncbyCJrYNtr5EF5o6Nh-55">
          <mxGeometry x="45" y="110" width="10" height="40" as="geometry" />
        </mxCell>
        <mxCell id="jncbyCJrYNtr5EF5o6Nh-67" value="" style="shape=umlDestroy;whiteSpace=wrap;html=1;strokeWidth=3;targetShapes=umlLifeline;" vertex="1" parent="jncbyCJrYNtr5EF5o6Nh-55">
          <mxGeometry x="40" y="160" width="20" height="20" as="geometry" />
        </mxCell>
        <mxCell id="jncbyCJrYNtr5EF5o6Nh-70" value="" style="html=1;points=[[0,0,0,0,5],[0,1,0,0,-5],[1,0,0,0,5],[1,1,0,0,-5]];perimeter=orthogonalPerimeter;outlineConnect=0;targetShapes=umlLifeline;portConstraint=eastwest;newEdgeStyle={&quot;curved&quot;:0,&quot;rounded&quot;:0};" vertex="1" parent="jncbyCJrYNtr5EF5o6Nh-55">
          <mxGeometry x="45" y="210" width="10" height="40" as="geometry" />
        </mxCell>
        <mxCell id="jncbyCJrYNtr5EF5o6Nh-58" value="" style="html=1;verticalAlign=bottom;endArrow=block;curved=0;rounded=0;" edge="1" parent="1">
          <mxGeometry relative="1" as="geometry">
            <mxPoint x="255" y="310" as="sourcePoint" />
            <mxPoint x="440" y="310" as="targetPoint" />
          </mxGeometry>
        </mxCell>
        <mxCell id="jncbyCJrYNtr5EF5o6Nh-63" value="*removerPrato()" style="edgeLabel;html=1;align=center;verticalAlign=middle;resizable=0;points=[];" vertex="1" connectable="0" parent="jncbyCJrYNtr5EF5o6Nh-58">
          <mxGeometry x="-0.0317" y="2" relative="1" as="geometry">
            <mxPoint x="-14" y="-6" as="offset" />
          </mxGeometry>
        </mxCell>
        <mxCell id="jncbyCJrYNtr5EF5o6Nh-65" value="" style="html=1;verticalAlign=bottom;endArrow=block;curved=0;rounded=0;" edge="1" parent="1">
          <mxGeometry relative="1" as="geometry">
            <mxPoint x="255.00000000000006" y="260" as="sourcePoint" />
            <mxPoint x="435" y="260" as="targetPoint" />
          </mxGeometry>
        </mxCell>
        <mxCell id="jncbyCJrYNtr5EF5o6Nh-66" value="*atualizarPratos()" style="edgeLabel;html=1;align=center;verticalAlign=middle;resizable=0;points=[];" vertex="1" connectable="0" parent="jncbyCJrYNtr5EF5o6Nh-65">
          <mxGeometry x="-0.0317" y="2" relative="1" as="geometry">
            <mxPoint x="-14" y="-6" as="offset" />
          </mxGeometry>
        </mxCell>
        <mxCell id="jncbyCJrYNtr5EF5o6Nh-68" value="" style="html=1;verticalAlign=bottom;endArrow=block;curved=0;rounded=0;" edge="1" parent="1" target="jncbyCJrYNtr5EF5o6Nh-70">
          <mxGeometry relative="1" as="geometry">
            <mxPoint x="255" y="360" as="sourcePoint" />
            <mxPoint x="430" y="360" as="targetPoint" />
          </mxGeometry>
        </mxCell>
        <mxCell id="jncbyCJrYNtr5EF5o6Nh-69" value="*adicionarPrato()" style="edgeLabel;html=1;align=center;verticalAlign=middle;resizable=0;points=[];" vertex="1" connectable="0" parent="jncbyCJrYNtr5EF5o6Nh-68">
          <mxGeometry x="-0.0317" y="2" relative="1" as="geometry">
            <mxPoint x="-14" y="-6" as="offset" />
          </mxGeometry>
        </mxCell>
        <mxCell id="jncbyCJrYNtr5EF5o6Nh-71" value="Prato" style="shape=umlLifeline;perimeter=lifelinePerimeter;whiteSpace=wrap;html=1;container=1;dropTarget=0;collapsible=0;recursiveResize=0;outlineConnect=0;portConstraint=eastwest;newEdgeStyle={&quot;curved&quot;:0,&quot;rounded&quot;:0};" vertex="1" parent="1">
          <mxGeometry x="550" y="340" width="100" height="220" as="geometry" />
        </mxCell>
        <mxCell id="jncbyCJrYNtr5EF5o6Nh-75" value="&amp;lt;&amp;lt;create&amp;gt;&amp;gt;" style="html=1;verticalAlign=bottom;startArrow=oval;startFill=1;endArrow=block;startSize=8;curved=0;rounded=0;" edge="1" parent="1">
          <mxGeometry x="0.0057" width="60" relative="1" as="geometry">
            <mxPoint x="450" y="364.71" as="sourcePoint" />
            <mxPoint x="550" y="365" as="targetPoint" />
            <mxPoint as="offset" />
          </mxGeometry>
        </mxCell>
      </root>
    </mxGraphModel>
  </diagram>
</mxfile>
